<svg xmlns="http://www.w3.org/2000/svg" width="1370" height="765" viewBox="0 0 1370 765">
<g>
<path d="M 717.00 496.00 C715.16,497.84 713.78,497.99 699.75,497.85 C681.48,497.67 678.88,497.37 677.25,495.25 C676.33,494.04 676.00,487.05 676.00,468.44 L 676.00 443.27 L 661.25 442.58 C628.64,441.07 599.93,436.69 584.32,430.85 C579.48,429.04 579.07,428.67 580.63,427.53 C582.27,426.33 582.25,426.21 580.34,425.61 C579.22,425.25 576.70,425.22 574.74,425.53 C569.94,426.29 568.97,424.42 572.62,421.43 C574.21,420.13 575.87,419.06 576.33,419.04 C576.78,419.02 580.38,420.51 584.33,422.37 C592.30,426.11 606.09,430.11 619.00,432.44 C630.80,434.56 656.51,437.00 667.14,437.00 L 676.00 437.00 L 676.01 401.25 C676.02,381.59 676.28,364.57 676.58,363.43 C677.14,361.37 677.19,361.37 682.32,363.14 C685.17,364.13 690.05,364.95 693.17,364.97 C698.73,365.00 709.69,362.73 713.36,360.79 C716.02,359.39 723.79,359.64 730.63,361.35 C739.78,363.64 749.13,364.30 752.54,362.90 C754.17,362.23 755.95,361.79 756.50,361.92 C757.05,362.06 757.17,361.84 756.77,361.43 C755.64,360.31 759.18,358.07 762.14,358.03 C763.60,358.01 765.05,358.67 765.36,359.50 C766.20,361.67 771.25,361.35 773.81,358.96 L 776.00 356.92 L 776.00 366.43 C776.00,374.80 775.77,376.05 774.07,376.96 C772.87,377.60 761.97,378.00 745.57,378.00 L 719.00 378.00 L 719.00 436.00 C719.00,492.67 718.95,494.05 717.00,496.00 ZM 775.43 456.43 C774.12,457.74 770.89,458.00 755.93,458.00 C739.11,458.00 737.87,457.87 735.92,455.92 C733.89,453.89 733.85,453.12 734.17,422.58 C734.43,397.92 734.79,390.96 735.87,389.65 C737.05,388.23 739.67,388.00 754.56,388.00 C764.08,388.00 773.02,388.44 774.43,388.98 L 777.00 389.95 L 777.00 422.40 C777.00,450.57 776.79,455.06 775.43,456.43 ZM 659.75 457.75 C659.06,458.30 656.47,458.94 654.00,459.19 C647.58,459.81 620.74,458.66 619.25,457.69 C618.44,457.17 618.00,454.37 618.00,449.81 L 618.00 442.74 L 622.25 443.33 C624.59,443.66 634.26,444.48 643.75,445.16 L 661.00 446.40 L 661.00 451.58 C661.00,454.52 660.46,457.18 659.75,457.75 ZM 791.62 428.96 C784.63,431.88 784.00,431.67 784.00,426.36 C784.00,423.74 784.59,422.75 786.83,421.59 C789.26,420.33 790.23,420.32 793.58,421.48 C795.74,422.22 798.74,422.59 800.25,422.29 C801.76,421.99 803.00,422.19 803.00,422.72 C803.00,423.75 799.49,425.68 791.62,428.96 Z" fill="rgb(17,78,103)"/>
<path d="M 656.60 426.91 C653.78,429.55 649.37,430.11 639.50,429.06 C630.60,428.11 624.92,426.51 621.81,424.07 C619.44,422.20 619.38,421.83 619.76,411.32 C619.98,405.37 620.09,399.26 620.02,397.75 C619.84,393.73 619.79,382.47 619.94,375.00 C620.01,371.42 619.69,359.95 619.23,349.50 C618.48,332.34 618.38,334.78 618.20,374.69 C618.09,399.00 617.66,419.09 617.25,419.35 C616.84,419.60 616.61,377.21 616.75,325.15 C616.76,319.50 616.77,314.16 616.79,309.12 C616.96,235.39 616.98,226.29 620.91,224.06 C621.73,223.59 622.72,223.42 623.92,223.03 C627.02,222.00 653.21,222.10 659.00,223.16 C660.32,223.40 660.51,235.77 660.60,326.96 C660.65,383.91 660.40,426.45 660.04,421.50 C659.45,413.47 659.36,413.15 659.19,418.58 C659.03,423.55 658.57,425.06 656.60,426.91 ZM 775.69 276.41 C774.47,278.07 771.25,278.22 729.44,278.52 C684.29,278.85 679.55,278.69 677.25,276.79 C675.73,275.53 675.49,263.57 677.00,264.50 C677.55,264.84 678.00,264.44 678.00,263.62 C678.00,260.98 680.08,260.64 694.94,260.83 C702.95,260.93 712.20,260.62 715.50,260.14 C724.46,258.83 769.77,260.75 773.17,262.58 C775.59,263.89 775.89,263.86 776.31,262.26 C776.56,261.29 776.82,263.68 776.88,267.56 C776.96,271.97 776.51,275.29 775.69,276.41 ZM 739.84 297.43 C736.35,299.17 733.62,299.33 730.25,297.97 C726.46,296.45 727.72,295.27 733.75,294.70 C738.91,294.21 743.50,293.41 743.50,293.00 C743.50,292.09 758.39,291.44 768.83,291.90 C771.32,292.01 771.40,294.50 768.92,294.50 C768.14,294.50 767.04,295.08 766.48,295.80 C765.38,297.20 748.95,297.75 745.07,296.52 C743.88,296.15 741.63,296.54 739.84,297.43 ZM 686.76 297.84 C685.08,299.52 681.32,299.26 680.61,297.42 C678.54,292.04 681.09,290.00 689.84,290.00 C695.45,290.00 704.00,293.05 704.00,295.06 C704.00,295.43 700.38,295.95 695.96,296.21 C691.54,296.46 687.40,297.20 686.76,297.84 ZM 601.98 416.51 C601.99,417.06 600.44,418.00 598.54,418.59 C596.64,419.19 595.29,419.35 595.54,418.94 C595.78,418.54 595.29,417.94 594.44,417.62 C593.40,417.22 593.13,417.43 593.62,418.26 C594.02,418.94 593.48,418.75 592.42,417.82 C589.83,415.56 589.94,409.01 592.60,407.54 C593.65,406.97 594.72,406.23 595.00,405.90 C596.30,404.33 599.74,403.22 600.95,403.97 C602.00,404.62 602.07,405.68 601.28,408.80 C600.70,411.07 600.63,413.39 601.12,414.15 C601.59,414.89 601.98,415.95 601.98,416.51 Z" fill="rgb(41,173,205)"/>
<path d="M 775.44 335.78 L 773.89 338.00 L 727.69 337.99 C692.54,337.97 680.90,337.67 679.00,336.71 C676.72,335.56 676.47,334.79 676.20,328.13 C676.02,323.60 676.35,320.28 677.08,319.41 C678.05,318.23 686.18,318.00 726.07,318.00 L 773.89 318.00 L 775.44 320.22 C776.40,321.59 777.00,324.59 777.00,328.00 C777.00,331.41 776.40,334.41 775.44,335.78 ZM 775.00 306.00 C773.06,307.94 771.67,308.00 726.72,308.00 C723.35,308.00 720.21,308.00 717.27,308.01 C686.32,308.03 678.47,308.04 676.55,304.67 C675.89,303.52 675.93,301.98 675.97,299.92 C675.99,299.34 676.00,298.73 676.00,298.07 C676.00,293.55 676.46,290.87 677.35,290.12 C678.30,289.34 692.89,288.93 726.20,288.75 C765.26,288.54 773.98,288.74 775.34,289.87 C777.91,292.00 777.66,303.34 775.00,306.00 ZM 775.40 375.50 C775.91,374.19 776.00,371.74 776.00,366.43 L 776.00 356.92 L 773.81 358.96 C771.25,361.35 766.20,361.67 765.36,359.50 C765.05,358.67 763.60,358.01 762.14,358.03 C759.18,358.07 755.64,360.31 756.77,361.43 C757.17,361.84 757.05,362.06 756.50,361.92 C755.95,361.79 754.17,362.23 752.54,362.90 C749.13,364.30 739.78,363.64 730.63,361.35 C723.79,359.64 716.02,359.39 713.36,360.79 C709.69,362.73 698.73,365.00 693.17,364.97 C690.05,364.95 685.17,364.13 682.32,363.14 C677.19,361.37 677.14,361.37 676.58,363.43 C676.28,364.57 676.02,381.59 676.01,401.25 L 676.00 437.00 L 676.00 394.07 C676.00,356.38 676.19,350.95 677.57,349.57 C678.96,348.19 684.78,348.00 726.50,348.00 C768.22,348.00 774.04,348.19 775.43,349.57 C776.67,350.82 777.00,353.52 777.00,362.57 C777.00,363.66 777.01,364.68 777.02,365.62 C777.07,370.43 777.10,373.38 775.67,375.19 C775.59,375.30 775.50,375.40 775.40,375.50 ZM 656.60 426.91 C658.57,425.06 659.03,423.55 659.19,418.58 C659.36,413.15 659.45,413.47 660.04,421.50 C660.40,426.45 660.65,383.91 660.60,326.96 C660.59,317.78 660.58,309.40 660.57,301.75 C660.91,359.32 661.02,427.09 660.53,429.71 C659.88,433.17 659.76,433.21 652.50,432.34 C639.75,430.83 625.11,428.57 617.81,426.99 C610.00,425.30 598.46,421.23 593.74,418.64 C593.77,418.59 593.74,418.47 593.62,418.26 C593.13,417.43 593.40,417.22 594.44,417.62 C595.29,417.94 595.78,418.54 595.54,418.94 C595.29,419.35 596.64,419.19 598.54,418.59 C600.44,418.00 601.99,417.06 601.98,416.51 C601.98,415.95 601.59,414.89 601.12,414.15 C600.63,413.39 600.70,411.07 601.28,408.80 C602.07,405.68 602.00,404.62 600.95,403.97 C600.47,403.67 599.63,403.67 598.71,403.87 C603.18,401.95 610.00,399.75 610.00,400.54 C610.00,400.78 608.21,402.11 606.02,403.49 C601.29,406.48 599.93,410.16 602.52,413.02 C604.09,414.76 613.66,419.00 616.01,419.00 C616.30,419.00 616.57,408.85 616.79,390.81 C616.88,408.51 617.04,419.48 617.25,419.35 C617.66,419.09 618.09,399.00 618.20,374.69 C618.38,334.78 618.48,332.34 619.23,349.50 C619.69,359.95 620.01,371.42 619.94,375.00 C619.79,382.47 619.84,393.73 620.02,397.75 C620.09,399.26 619.98,405.37 619.76,411.32 C619.38,421.83 619.44,422.20 621.81,424.07 C624.92,426.51 630.60,428.11 639.50,429.06 C649.37,430.11 653.78,429.55 656.60,426.91 ZM 584.76 422.57 C584.62,422.50 584.47,422.43 584.33,422.37 C580.38,420.51 576.78,419.02 576.33,419.04 C575.87,419.06 574.21,420.13 572.62,421.43 C568.97,424.42 569.94,426.29 574.74,425.53 C576.70,425.22 579.22,425.25 580.34,425.61 C582.25,426.21 582.27,426.33 580.63,427.53 C579.07,428.67 579.48,429.04 584.32,430.85 C592.15,433.78 603.27,436.34 616.52,438.35 C608.70,437.26 602.06,436.09 597.84,435.00 C588.87,432.68 574.44,427.75 569.90,425.45 C562.13,421.51 559.06,415.49 562.02,409.97 C563.56,407.09 571.22,402.20 578.51,399.46 C587.22,396.18 588.63,396.37 582.35,399.97 C571.95,405.94 570.39,411.35 577.25,417.66 C579.12,419.38 581.64,421.02 584.76,422.57 ZM 802.94 422.98 C802.98,422.88 803.00,422.80 803.00,422.72 C803.00,422.19 801.76,421.99 800.25,422.29 C798.74,422.59 795.74,422.22 793.58,421.48 C790.23,420.32 789.26,420.33 786.83,421.59 C786.80,421.60 786.77,421.62 786.74,421.63 C787.32,421.20 788.02,420.73 788.86,420.19 C794.64,416.44 795.62,415.37 796.53,411.74 C797.11,409.41 796.62,408.41 793.35,405.24 C791.22,403.18 788.58,400.92 787.49,400.22 C785.75,399.10 786.00,399.02 789.50,399.56 C799.89,401.16 809.00,408.00 809.00,414.21 C809.00,416.91 806.68,420.10 802.94,422.98 ZM 739.84 297.43 C741.63,296.54 743.88,296.15 745.07,296.52 C748.95,297.75 765.38,297.20 766.48,295.80 C767.04,295.08 768.14,294.50 768.92,294.50 C771.40,294.50 771.32,292.01 768.83,291.90 C758.39,291.44 743.50,292.09 743.50,293.00 C743.50,293.41 738.91,294.21 733.75,294.70 C727.72,295.27 726.46,296.45 730.25,297.97 C733.62,299.33 736.35,299.17 739.84,297.43 ZM 776.47 274.15 C776.78,272.52 776.93,270.24 776.88,267.56 C776.82,263.68 776.56,261.29 776.31,262.26 C775.89,263.86 775.59,263.89 773.17,262.58 C769.77,260.75 724.46,258.83 715.50,260.14 C712.20,260.62 702.95,260.93 694.94,260.83 C680.08,260.64 678.00,260.98 678.00,263.62 C678.00,264.44 677.55,264.84 677.00,264.50 C675.49,263.57 675.73,275.53 677.25,276.79 C675.34,275.21 675.59,262.55 677.57,260.57 C678.96,259.19 684.82,259.00 726.87,259.00 C762.66,259.00 774.90,259.30 775.80,260.20 C777.13,261.53 777.33,269.82 776.47,274.15 ZM 686.76 297.84 C687.40,297.20 691.54,296.46 695.96,296.21 C700.38,295.95 704.00,295.43 704.00,295.06 C704.00,293.05 695.45,290.00 689.84,290.00 C681.09,290.00 678.54,292.04 680.61,297.42 C681.32,299.26 685.08,299.52 686.76,297.84 ZM 659.80 226.69 C659.59,224.04 659.33,223.22 659.00,223.16 C653.21,222.10 627.02,222.00 623.92,223.03 C622.72,223.42 621.73,223.59 620.91,224.06 C619.42,224.91 618.49,226.75 617.90,232.74 C618.15,225.30 618.49,223.11 619.00,222.61 C620.18,221.46 624.56,221.08 639.67,220.83 C650.21,220.65 659.15,220.82 659.54,221.21 C659.63,221.30 659.71,223.24 659.80,226.69 ZM 770.71 377.45 C767.04,378.05 761.24,378.03 752.13,378.01 C750.23,378.01 748.19,378.00 746.00,378.00 C757.46,378.00 766.19,377.80 770.71,377.45 ZM 636.44 434.80 C629.70,434.06 623.39,433.23 619.00,432.44 C616.10,431.92 613.15,431.31 610.23,430.64 C617.95,432.28 626.73,433.68 636.44,434.80 ZM 592.51 417.90 C592.31,417.76 592.14,417.63 592.00,417.50 C591.10,416.69 590.64,415.07 590.57,413.37 C590.71,415.14 591.33,416.87 592.42,417.82 C592.45,417.85 592.48,417.88 592.51,417.90 ZM 793.35 428.25 C793.22,428.30 793.09,428.35 792.96,428.40 C794.74,427.64 796.27,426.96 797.56,426.35 C796.23,427.04 794.82,427.68 793.35,428.25 ZM 784.95 430.63 C785.33,430.86 785.87,430.90 786.63,430.75 C786.15,430.91 785.86,431.00 785.79,431.00 C785.47,431.00 785.19,430.88 784.95,430.63 ZM 655.29 436.49 C660.11,436.80 664.51,437.00 667.14,437.00 C664.16,437.00 660.00,436.81 655.29,436.49 Z" fill="rgb(48,150,173)"/>
<path d="M 0.00 382.50 L 0.00 0.00 L 685.00 0.00 L 1370.00 0.00 L 1370.00 382.50 L 1370.00 765.00 L 685.00 765.00 L 0.00 765.00 L 0.00 382.50 ZM 717.00 496.00 C718.95,494.05 719.00,492.67 719.00,436.00 L 719.00 378.00 L 746.00 378.00 C779.34,378.00 777.00,379.16 777.00,362.57 C777.00,353.52 776.67,350.82 775.43,349.57 C774.04,348.19 768.22,348.00 726.50,348.00 C684.78,348.00 678.96,348.19 677.57,349.57 C676.19,350.95 676.00,356.38 676.00,394.07 L 676.00 437.00 L 667.14 437.00 C662.27,437.00 651.35,436.32 642.89,435.48 C609.68,432.21 586.11,425.81 577.25,417.66 C570.39,411.35 571.95,405.94 582.35,399.97 C588.63,396.37 587.22,396.18 578.51,399.46 C571.22,402.20 563.56,407.09 562.02,409.97 C559.06,415.49 562.13,421.51 569.90,425.45 C574.44,427.75 588.87,432.68 597.84,435.00 C609.40,437.99 639.25,441.56 661.25,442.58 L 676.00 443.27 L 676.00 468.44 C676.00,487.05 676.33,494.04 677.25,495.25 C678.88,497.37 681.48,497.67 699.75,497.85 C713.78,497.99 715.16,497.84 717.00,496.00 ZM 659.75 457.75 C660.46,457.18 661.00,454.52 661.00,451.58 L 661.00 446.40 L 643.75 445.16 C634.26,444.48 624.59,443.66 622.25,443.33 L 618.00 442.74 L 618.00 449.81 C618.00,454.37 618.44,457.17 619.25,457.69 C620.74,458.66 647.58,459.81 654.00,459.19 C656.47,458.94 659.06,458.30 659.75,457.75 ZM 775.43 456.43 C776.79,455.06 777.00,450.57 777.00,422.40 L 777.00 389.95 L 774.43 388.98 C773.02,388.44 764.08,388.00 754.56,388.00 C739.67,388.00 737.05,388.23 735.87,389.65 C734.79,390.96 734.43,397.92 734.17,422.58 C733.85,453.12 733.89,453.89 735.92,455.92 C737.87,457.87 739.11,458.00 755.93,458.00 C770.89,458.00 774.12,457.74 775.43,456.43 ZM 660.53 429.71 C661.38,425.14 660.42,222.09 659.54,221.21 C659.15,220.82 650.21,220.65 639.67,220.83 C624.56,221.08 620.18,221.46 619.00,222.61 C617.69,223.89 617.46,236.46 617.22,321.54 C617.05,381.06 616.58,419.00 616.01,419.00 C613.66,419.00 604.09,414.76 602.52,413.02 C599.93,410.16 601.29,406.48 606.02,403.49 C608.21,402.11 610.00,400.78 610.00,400.54 C610.00,399.42 596.33,404.30 595.00,405.90 C594.72,406.23 593.65,406.97 592.60,407.54 C590.21,408.86 589.81,415.52 592.00,417.50 C594.57,419.83 608.71,425.03 617.81,426.99 C625.11,428.57 639.75,430.83 652.50,432.34 C659.76,433.21 659.88,433.17 660.53,429.71 ZM 793.35 428.25 C802.34,424.77 809.00,418.79 809.00,414.21 C809.00,408.00 799.89,401.16 789.50,399.56 C786.00,399.02 785.75,399.10 787.49,400.22 C788.58,400.92 791.22,403.18 793.35,405.24 C796.62,408.41 797.11,409.41 796.53,411.74 C795.62,415.37 794.64,416.44 788.86,420.19 C784.73,422.86 784.00,423.81 784.00,426.50 C784.00,429.41 784.63,431.00 785.79,431.00 C786.04,431.00 789.44,429.76 793.35,428.25 ZM 775.44 335.78 C776.40,334.41 777.00,331.41 777.00,328.00 C777.00,324.59 776.40,321.59 775.44,320.22 L 773.89 318.00 L 726.07 318.00 C686.18,318.00 678.05,318.23 677.08,319.41 C676.35,320.28 676.02,323.60 676.20,328.13 C676.47,334.79 676.72,335.56 679.00,336.71 C680.90,337.67 692.54,337.97 727.69,337.99 L 773.89 338.00 L 775.44 335.78 ZM 775.00 306.00 C777.66,303.34 777.91,292.00 775.34,289.87 C773.98,288.74 765.26,288.54 726.20,288.75 C692.89,288.93 678.30,289.34 677.35,290.12 C676.46,290.87 676.00,293.55 676.00,298.07 C676.00,308.70 672.42,308.00 726.72,308.00 C771.67,308.00 773.06,307.94 775.00,306.00 ZM 775.69 276.41 C777.36,274.13 777.44,261.84 775.80,260.20 C774.90,259.30 762.66,259.00 726.87,259.00 C684.82,259.00 678.96,259.19 677.57,260.57 C675.59,262.55 675.34,275.21 677.25,276.79 C679.55,278.69 684.29,278.85 729.44,278.52 C771.25,278.22 774.47,278.07 775.69,276.41 Z" fill="rgb(254,254,254)"/>
</g>
</svg>